<?xml version="1.0" encoding="utf-8"?>
<!DOCTYPE svg PUBLIC "-//W3C//DTD SVG 20010904//EN" "http://www.w3.org/TR/2001/REC-SVG-20010904/DTD/svg10.dtd">
<svg xmlns="http://www.w3.org/2000/svg" xml:space="preserve" xmlns:xlink="http://www.w3.org/1999/xlink" width="540" height="540" viewBox="0 0 540 540">
<desc></desc>
<rect width="540" height="540" fill="#ffffff" cx="0" cy="0" />
<defs>
<rect id="p" width="12" height="12" />
</defs>
<g fill="#000000">
<use x="24" y="24" xlink:href="#p" />
<use x="36" y="24" xlink:href="#p" />
<use x="48" y="24" xlink:href="#p" />
<use x="60" y="24" xlink:href="#p" />
<use x="72" y="24" xlink:href="#p" />
<use x="84" y="24" xlink:href="#p" />
<use x="96" y="24" xlink:href="#p" />
<use x="120" y="24" xlink:href="#p" />
<use x="132" y="24" xlink:href="#p" />
<use x="144" y="24" xlink:href="#p" />
<use x="168" y="24" xlink:href="#p" />
<use x="180" y="24" xlink:href="#p" />
<use x="204" y="24" xlink:href="#p" />
<use x="216" y="24" xlink:href="#p" />
<use x="252" y="24" xlink:href="#p" />
<use x="264" y="24" xlink:href="#p" />
<use x="300" y="24" xlink:href="#p" />
<use x="324" y="24" xlink:href="#p" />
<use x="336" y="24" xlink:href="#p" />
<use x="384" y="24" xlink:href="#p" />
<use x="408" y="24" xlink:href="#p" />
<use x="432" y="24" xlink:href="#p" />
<use x="444" y="24" xlink:href="#p" />
<use x="456" y="24" xlink:href="#p" />
<use x="468" y="24" xlink:href="#p" />
<use x="480" y="24" xlink:href="#p" />
<use x="492" y="24" xlink:href="#p" />
<use x="504" y="24" xlink:href="#p" />
<use x="24" y="36" xlink:href="#p" />
<use x="96" y="36" xlink:href="#p" />
<use x="120" y="36" xlink:href="#p" />
<use x="168" y="36" xlink:href="#p" />
<use x="180" y="36" xlink:href="#p" />
<use x="192" y="36" xlink:href="#p" />
<use x="204" y="36" xlink:href="#p" />
<use x="240" y="36" xlink:href="#p" />
<use x="264" y="36" xlink:href="#p" />
<use x="276" y="36" xlink:href="#p" />
<use x="288" y="36" xlink:href="#p" />
<use x="300" y="36" xlink:href="#p" />
<use x="324" y="36" xlink:href="#p" />
<use x="336" y="36" xlink:href="#p" />
<use x="348" y="36" xlink:href="#p" />
<use x="360" y="36" xlink:href="#p" />
<use x="384" y="36" xlink:href="#p" />
<use x="432" y="36" xlink:href="#p" />
<use x="504" y="36" xlink:href="#p" />
<use x="24" y="48" xlink:href="#p" />
<use x="48" y="48" xlink:href="#p" />
<use x="60" y="48" xlink:href="#p" />
<use x="72" y="48" xlink:href="#p" />
<use x="96" y="48" xlink:href="#p" />
<use x="120" y="48" xlink:href="#p" />
<use x="144" y="48" xlink:href="#p" />
<use x="168" y="48" xlink:href="#p" />
<use x="180" y="48" xlink:href="#p" />
<use x="192" y="48" xlink:href="#p" />
<use x="204" y="48" xlink:href="#p" />
<use x="216" y="48" xlink:href="#p" />
<use x="276" y="48" xlink:href="#p" />
<use x="300" y="48" xlink:href="#p" />
<use x="324" y="48" xlink:href="#p" />
<use x="408" y="48" xlink:href="#p" />
<use x="432" y="48" xlink:href="#p" />
<use x="456" y="48" xlink:href="#p" />
<use x="468" y="48" xlink:href="#p" />
<use x="480" y="48" xlink:href="#p" />
<use x="504" y="48" xlink:href="#p" />
<use x="24" y="60" xlink:href="#p" />
<use x="48" y="60" xlink:href="#p" />
<use x="60" y="60" xlink:href="#p" />
<use x="72" y="60" xlink:href="#p" />
<use x="96" y="60" xlink:href="#p" />
<use x="144" y="60" xlink:href="#p" />
<use x="156" y="60" xlink:href="#p" />
<use x="204" y="60" xlink:href="#p" />
<use x="216" y="60" xlink:href="#p" />
<use x="240" y="60" xlink:href="#p" />
<use x="264" y="60" xlink:href="#p" />
<use x="288" y="60" xlink:href="#p" />
<use x="300" y="60" xlink:href="#p" />
<use x="312" y="60" xlink:href="#p" />
<use x="336" y="60" xlink:href="#p" />
<use x="348" y="60" xlink:href="#p" />
<use x="384" y="60" xlink:href="#p" />
<use x="432" y="60" xlink:href="#p" />
<use x="456" y="60" xlink:href="#p" />
<use x="468" y="60" xlink:href="#p" />
<use x="480" y="60" xlink:href="#p" />
<use x="504" y="60" xlink:href="#p" />
<use x="24" y="72" xlink:href="#p" />
<use x="48" y="72" xlink:href="#p" />
<use x="60" y="72" xlink:href="#p" />
<use x="72" y="72" xlink:href="#p" />
<use x="96" y="72" xlink:href="#p" />
<use x="132" y="72" xlink:href="#p" />
<use x="156" y="72" xlink:href="#p" />
<use x="228" y="72" xlink:href="#p" />
<use x="240" y="72" xlink:href="#p" />
<use x="252" y="72" xlink:href="#p" />
<use x="264" y="72" xlink:href="#p" />
<use x="276" y="72" xlink:href="#p" />
<use x="288" y="72" xlink:href="#p" />
<use x="300" y="72" xlink:href="#p" />
<use x="360" y="72" xlink:href="#p" />
<use x="432" y="72" xlink:href="#p" />
<use x="456" y="72" xlink:href="#p" />
<use x="468" y="72" xlink:href="#p" />
<use x="480" y="72" xlink:href="#p" />
<use x="504" y="72" xlink:href="#p" />
<use x="24" y="84" xlink:href="#p" />
<use x="96" y="84" xlink:href="#p" />
<use x="120" y="84" xlink:href="#p" />
<use x="132" y="84" xlink:href="#p" />
<use x="180" y="84" xlink:href="#p" />
<use x="204" y="84" xlink:href="#p" />
<use x="228" y="84" xlink:href="#p" />
<use x="276" y="84" xlink:href="#p" />
<use x="288" y="84" xlink:href="#p" />
<use x="324" y="84" xlink:href="#p" />
<use x="336" y="84" xlink:href="#p" />
<use x="348" y="84" xlink:href="#p" />
<use x="360" y="84" xlink:href="#p" />
<use x="396" y="84" xlink:href="#p" />
<use x="408" y="84" xlink:href="#p" />
<use x="432" y="84" xlink:href="#p" />
<use x="504" y="84" xlink:href="#p" />
<use x="24" y="96" xlink:href="#p" />
<use x="36" y="96" xlink:href="#p" />
<use x="48" y="96" xlink:href="#p" />
<use x="60" y="96" xlink:href="#p" />
<use x="72" y="96" xlink:href="#p" />
<use x="84" y="96" xlink:href="#p" />
<use x="96" y="96" xlink:href="#p" />
<use x="120" y="96" xlink:href="#p" />
<use x="144" y="96" xlink:href="#p" />
<use x="168" y="96" xlink:href="#p" />
<use x="192" y="96" xlink:href="#p" />
<use x="216" y="96" xlink:href="#p" />
<use x="240" y="96" xlink:href="#p" />
<use x="264" y="96" xlink:href="#p" />
<use x="288" y="96" xlink:href="#p" />
<use x="312" y="96" xlink:href="#p" />
<use x="336" y="96" xlink:href="#p" />
<use x="360" y="96" xlink:href="#p" />
<use x="384" y="96" xlink:href="#p" />
<use x="408" y="96" xlink:href="#p" />
<use x="432" y="96" xlink:href="#p" />
<use x="444" y="96" xlink:href="#p" />
<use x="456" y="96" xlink:href="#p" />
<use x="468" y="96" xlink:href="#p" />
<use x="480" y="96" xlink:href="#p" />
<use x="492" y="96" xlink:href="#p" />
<use x="504" y="96" xlink:href="#p" />
<use x="120" y="108" xlink:href="#p" />
<use x="180" y="108" xlink:href="#p" />
<use x="192" y="108" xlink:href="#p" />
<use x="216" y="108" xlink:href="#p" />
<use x="228" y="108" xlink:href="#p" />
<use x="240" y="108" xlink:href="#p" />
<use x="252" y="108" xlink:href="#p" />
<use x="264" y="108" xlink:href="#p" />
<use x="276" y="108" xlink:href="#p" />
<use x="324" y="108" xlink:href="#p" />
<use x="336" y="108" xlink:href="#p" />
<use x="348" y="108" xlink:href="#p" />
<use x="408" y="108" xlink:href="#p" />
<use x="48" y="120" xlink:href="#p" />
<use x="60" y="120" xlink:href="#p" />
<use x="72" y="120" xlink:href="#p" />
<use x="96" y="120" xlink:href="#p" />
<use x="120" y="120" xlink:href="#p" />
<use x="132" y="120" xlink:href="#p" />
<use x="180" y="120" xlink:href="#p" />
<use x="192" y="120" xlink:href="#p" />
<use x="216" y="120" xlink:href="#p" />
<use x="264" y="120" xlink:href="#p" />
<use x="276" y="120" xlink:href="#p" />
<use x="300" y="120" xlink:href="#p" />
<use x="348" y="120" xlink:href="#p" />
<use x="372" y="120" xlink:href="#p" />
<use x="384" y="120" xlink:href="#p" />
<use x="396" y="120" xlink:href="#p" />
<use x="408" y="120" xlink:href="#p" />
<use x="420" y="120" xlink:href="#p" />
<use x="432" y="120" xlink:href="#p" />
<use x="444" y="120" xlink:href="#p" />
<use x="480" y="120" xlink:href="#p" />
<use x="492" y="120" xlink:href="#p" />
<use x="504" y="120" xlink:href="#p" />
<use x="48" y="132" xlink:href="#p" />
<use x="60" y="132" xlink:href="#p" />
<use x="72" y="132" xlink:href="#p" />
<use x="84" y="132" xlink:href="#p" />
<use x="108" y="132" xlink:href="#p" />
<use x="120" y="132" xlink:href="#p" />
<use x="144" y="132" xlink:href="#p" />
<use x="168" y="132" xlink:href="#p" />
<use x="192" y="132" xlink:href="#p" />
<use x="204" y="132" xlink:href="#p" />
<use x="252" y="132" xlink:href="#p" />
<use x="276" y="132" xlink:href="#p" />
<use x="288" y="132" xlink:href="#p" />
<use x="324" y="132" xlink:href="#p" />
<use x="360" y="132" xlink:href="#p" />
<use x="384" y="132" xlink:href="#p" />
<use x="396" y="132" xlink:href="#p" />
<use x="408" y="132" xlink:href="#p" />
<use x="420" y="132" xlink:href="#p" />
<use x="444" y="132" xlink:href="#p" />
<use x="456" y="132" xlink:href="#p" />
<use x="480" y="132" xlink:href="#p" />
<use x="492" y="132" xlink:href="#p" />
<use x="72" y="144" xlink:href="#p" />
<use x="84" y="144" xlink:href="#p" />
<use x="96" y="144" xlink:href="#p" />
<use x="108" y="144" xlink:href="#p" />
<use x="132" y="144" xlink:href="#p" />
<use x="144" y="144" xlink:href="#p" />
<use x="204" y="144" xlink:href="#p" />
<use x="216" y="144" xlink:href="#p" />
<use x="240" y="144" xlink:href="#p" />
<use x="264" y="144" xlink:href="#p" />
<use x="288" y="144" xlink:href="#p" />
<use x="300" y="144" xlink:href="#p" />
<use x="312" y="144" xlink:href="#p" />
<use x="348" y="144" xlink:href="#p" />
<use x="360" y="144" xlink:href="#p" />
<use x="372" y="144" xlink:href="#p" />
<use x="408" y="144" xlink:href="#p" />
<use x="420" y="144" xlink:href="#p" />
<use x="456" y="144" xlink:href="#p" />
<use x="492" y="144" xlink:href="#p" />
<use x="24" y="156" xlink:href="#p" />
<use x="36" y="156" xlink:href="#p" />
<use x="48" y="156" xlink:href="#p" />
<use x="72" y="156" xlink:href="#p" />
<use x="84" y="156" xlink:href="#p" />
<use x="108" y="156" xlink:href="#p" />
<use x="120" y="156" xlink:href="#p" />
<use x="156" y="156" xlink:href="#p" />
<use x="228" y="156" xlink:href="#p" />
<use x="252" y="156" xlink:href="#p" />
<use x="324" y="156" xlink:href="#p" />
<use x="396" y="156" xlink:href="#p" />
<use x="408" y="156" xlink:href="#p" />
<use x="456" y="156" xlink:href="#p" />
<use x="468" y="156" xlink:href="#p" />
<use x="36" y="168" xlink:href="#p" />
<use x="72" y="168" xlink:href="#p" />
<use x="96" y="168" xlink:href="#p" />
<use x="108" y="168" xlink:href="#p" />
<use x="144" y="168" xlink:href="#p" />
<use x="156" y="168" xlink:href="#p" />
<use x="168" y="168" xlink:href="#p" />
<use x="204" y="168" xlink:href="#p" />
<use x="216" y="168" xlink:href="#p" />
<use x="228" y="168" xlink:href="#p" />
<use x="240" y="168" xlink:href="#p" />
<use x="264" y="168" xlink:href="#p" />
<use x="276" y="168" xlink:href="#p" />
<use x="300" y="168" xlink:href="#p" />
<use x="348" y="168" xlink:href="#p" />
<use x="360" y="168" xlink:href="#p" />
<use x="372" y="168" xlink:href="#p" />
<use x="384" y="168" xlink:href="#p" />
<use x="396" y="168" xlink:href="#p" />
<use x="420" y="168" xlink:href="#p" />
<use x="468" y="168" xlink:href="#p" />
<use x="480" y="168" xlink:href="#p" />
<use x="24" y="180" xlink:href="#p" />
<use x="48" y="180" xlink:href="#p" />
<use x="156" y="180" xlink:href="#p" />
<use x="168" y="180" xlink:href="#p" />
<use x="180" y="180" xlink:href="#p" />
<use x="204" y="180" xlink:href="#p" />
<use x="216" y="180" xlink:href="#p" />
<use x="240" y="180" xlink:href="#p" />
<use x="252" y="180" xlink:href="#p" />
<use x="276" y="180" xlink:href="#p" />
<use x="312" y="180" xlink:href="#p" />
<use x="348" y="180" xlink:href="#p" />
<use x="408" y="180" xlink:href="#p" />
<use x="444" y="180" xlink:href="#p" />
<use x="456" y="180" xlink:href="#p" />
<use x="468" y="180" xlink:href="#p" />
<use x="504" y="180" xlink:href="#p" />
<use x="24" y="192" xlink:href="#p" />
<use x="36" y="192" xlink:href="#p" />
<use x="48" y="192" xlink:href="#p" />
<use x="60" y="192" xlink:href="#p" />
<use x="72" y="192" xlink:href="#p" />
<use x="96" y="192" xlink:href="#p" />
<use x="204" y="192" xlink:href="#p" />
<use x="216" y="192" xlink:href="#p" />
<use x="228" y="192" xlink:href="#p" />
<use x="240" y="192" xlink:href="#p" />
<use x="288" y="192" xlink:href="#p" />
<use x="336" y="192" xlink:href="#p" />
<use x="348" y="192" xlink:href="#p" />
<use x="360" y="192" xlink:href="#p" />
<use x="396" y="192" xlink:href="#p" />
<use x="420" y="192" xlink:href="#p" />
<use x="444" y="192" xlink:href="#p" />
<use x="24" y="204" xlink:href="#p" />
<use x="72" y="204" xlink:href="#p" />
<use x="108" y="204" xlink:href="#p" />
<use x="144" y="204" xlink:href="#p" />
<use x="168" y="204" xlink:href="#p" />
<use x="192" y="204" xlink:href="#p" />
<use x="216" y="204" xlink:href="#p" />
<use x="228" y="204" xlink:href="#p" />
<use x="264" y="204" xlink:href="#p" />
<use x="312" y="204" xlink:href="#p" />
<use x="324" y="204" xlink:href="#p" />
<use x="336" y="204" xlink:href="#p" />
<use x="348" y="204" xlink:href="#p" />
<use x="384" y="204" xlink:href="#p" />
<use x="396" y="204" xlink:href="#p" />
<use x="408" y="204" xlink:href="#p" />
<use x="432" y="204" xlink:href="#p" />
<use x="444" y="204" xlink:href="#p" />
<use x="492" y="204" xlink:href="#p" />
<use x="504" y="204" xlink:href="#p" />
<use x="36" y="216" xlink:href="#p" />
<use x="60" y="216" xlink:href="#p" />
<use x="96" y="216" xlink:href="#p" />
<use x="108" y="216" xlink:href="#p" />
<use x="120" y="216" xlink:href="#p" />
<use x="180" y="216" xlink:href="#p" />
<use x="192" y="216" xlink:href="#p" />
<use x="204" y="216" xlink:href="#p" />
<use x="228" y="216" xlink:href="#p" />
<use x="240" y="216" xlink:href="#p" />
<use x="300" y="216" xlink:href="#p" />
<use x="312" y="216" xlink:href="#p" />
<use x="336" y="216" xlink:href="#p" />
<use x="348" y="216" xlink:href="#p" />
<use x="372" y="216" xlink:href="#p" />
<use x="396" y="216" xlink:href="#p" />
<use x="408" y="216" xlink:href="#p" />
<use x="420" y="216" xlink:href="#p" />
<use x="444" y="216" xlink:href="#p" />
<use x="480" y="216" xlink:href="#p" />
<use x="492" y="216" xlink:href="#p" />
<use x="24" y="228" xlink:href="#p" />
<use x="36" y="228" xlink:href="#p" />
<use x="60" y="228" xlink:href="#p" />
<use x="84" y="228" xlink:href="#p" />
<use x="132" y="228" xlink:href="#p" />
<use x="144" y="228" xlink:href="#p" />
<use x="204" y="228" xlink:href="#p" />
<use x="240" y="228" xlink:href="#p" />
<use x="276" y="228" xlink:href="#p" />
<use x="288" y="228" xlink:href="#p" />
<use x="300" y="228" xlink:href="#p" />
<use x="312" y="228" xlink:href="#p" />
<use x="336" y="228" xlink:href="#p" />
<use x="348" y="228" xlink:href="#p" />
<use x="360" y="228" xlink:href="#p" />
<use x="372" y="228" xlink:href="#p" />
<use x="408" y="228" xlink:href="#p" />
<use x="432" y="228" xlink:href="#p" />
<use x="444" y="228" xlink:href="#p" />
<use x="456" y="228" xlink:href="#p" />
<use x="480" y="228" xlink:href="#p" />
<use x="504" y="228" xlink:href="#p" />
<use x="24" y="240" xlink:href="#p" />
<use x="48" y="240" xlink:href="#p" />
<use x="84" y="240" xlink:href="#p" />
<use x="96" y="240" xlink:href="#p" />
<use x="108" y="240" xlink:href="#p" />
<use x="120" y="240" xlink:href="#p" />
<use x="132" y="240" xlink:href="#p" />
<use x="144" y="240" xlink:href="#p" />
<use x="204" y="240" xlink:href="#p" />
<use x="216" y="240" xlink:href="#p" />
<use x="252" y="240" xlink:href="#p" />
<use x="300" y="240" xlink:href="#p" />
<use x="324" y="240" xlink:href="#p" />
<use x="348" y="240" xlink:href="#p" />
<use x="372" y="240" xlink:href="#p" />
<use x="432" y="240" xlink:href="#p" />
<use x="456" y="240" xlink:href="#p" />
<use x="480" y="240" xlink:href="#p" />
<use x="60" y="252" xlink:href="#p" />
<use x="84" y="252" xlink:href="#p" />
<use x="120" y="252" xlink:href="#p" />
<use x="132" y="252" xlink:href="#p" />
<use x="144" y="252" xlink:href="#p" />
<use x="180" y="252" xlink:href="#p" />
<use x="192" y="252" xlink:href="#p" />
<use x="204" y="252" xlink:href="#p" />
<use x="228" y="252" xlink:href="#p" />
<use x="240" y="252" xlink:href="#p" />
<use x="252" y="252" xlink:href="#p" />
<use x="276" y="252" xlink:href="#p" />
<use x="288" y="252" xlink:href="#p" />
<use x="300" y="252" xlink:href="#p" />
<use x="372" y="252" xlink:href="#p" />
<use x="384" y="252" xlink:href="#p" />
<use x="396" y="252" xlink:href="#p" />
<use x="408" y="252" xlink:href="#p" />
<use x="456" y="252" xlink:href="#p" />
<use x="468" y="252" xlink:href="#p" />
<use x="24" y="264" xlink:href="#p" />
<use x="48" y="264" xlink:href="#p" />
<use x="96" y="264" xlink:href="#p" />
<use x="120" y="264" xlink:href="#p" />
<use x="168" y="264" xlink:href="#p" />
<use x="264" y="264" xlink:href="#p" />
<use x="288" y="264" xlink:href="#p" />
<use x="300" y="264" xlink:href="#p" />
<use x="360" y="264" xlink:href="#p" />
<use x="396" y="264" xlink:href="#p" />
<use x="408" y="264" xlink:href="#p" />
<use x="420" y="264" xlink:href="#p" />
<use x="456" y="264" xlink:href="#p" />
<use x="468" y="264" xlink:href="#p" />
<use x="492" y="264" xlink:href="#p" />
<use x="84" y="276" xlink:href="#p" />
<use x="108" y="276" xlink:href="#p" />
<use x="144" y="276" xlink:href="#p" />
<use x="168" y="276" xlink:href="#p" />
<use x="180" y="276" xlink:href="#p" />
<use x="204" y="276" xlink:href="#p" />
<use x="240" y="276" xlink:href="#p" />
<use x="264" y="276" xlink:href="#p" />
<use x="300" y="276" xlink:href="#p" />
<use x="312" y="276" xlink:href="#p" />
<use x="336" y="276" xlink:href="#p" />
<use x="348" y="276" xlink:href="#p" />
<use x="372" y="276" xlink:href="#p" />
<use x="384" y="276" xlink:href="#p" />
<use x="420" y="276" xlink:href="#p" />
<use x="432" y="276" xlink:href="#p" />
<use x="444" y="276" xlink:href="#p" />
<use x="468" y="276" xlink:href="#p" />
<use x="480" y="276" xlink:href="#p" />
<use x="492" y="276" xlink:href="#p" />
<use x="504" y="276" xlink:href="#p" />
<use x="24" y="288" xlink:href="#p" />
<use x="36" y="288" xlink:href="#p" />
<use x="60" y="288" xlink:href="#p" />
<use x="96" y="288" xlink:href="#p" />
<use x="120" y="288" xlink:href="#p" />
<use x="132" y="288" xlink:href="#p" />
<use x="168" y="288" xlink:href="#p" />
<use x="180" y="288" xlink:href="#p" />
<use x="192" y="288" xlink:href="#p" />
<use x="204" y="288" xlink:href="#p" />
<use x="228" y="288" xlink:href="#p" />
<use x="240" y="288" xlink:href="#p" />
<use x="252" y="288" xlink:href="#p" />
<use x="264" y="288" xlink:href="#p" />
<use x="288" y="288" xlink:href="#p" />
<use x="312" y="288" xlink:href="#p" />
<use x="348" y="288" xlink:href="#p" />
<use x="372" y="288" xlink:href="#p" />
<use x="396" y="288" xlink:href="#p" />
<use x="408" y="288" xlink:href="#p" />
<use x="420" y="288" xlink:href="#p" />
<use x="480" y="288" xlink:href="#p" />
<use x="36" y="300" xlink:href="#p" />
<use x="108" y="300" xlink:href="#p" />
<use x="120" y="300" xlink:href="#p" />
<use x="192" y="300" xlink:href="#p" />
<use x="204" y="300" xlink:href="#p" />
<use x="240" y="300" xlink:href="#p" />
<use x="252" y="300" xlink:href="#p" />
<use x="300" y="300" xlink:href="#p" />
<use x="348" y="300" xlink:href="#p" />
<use x="360" y="300" xlink:href="#p" />
<use x="384" y="300" xlink:href="#p" />
<use x="396" y="300" xlink:href="#p" />
<use x="408" y="300" xlink:href="#p" />
<use x="444" y="300" xlink:href="#p" />
<use x="468" y="300" xlink:href="#p" />
<use x="480" y="300" xlink:href="#p" />
<use x="492" y="300" xlink:href="#p" />
<use x="36" y="312" xlink:href="#p" />
<use x="48" y="312" xlink:href="#p" />
<use x="60" y="312" xlink:href="#p" />
<use x="72" y="312" xlink:href="#p" />
<use x="96" y="312" xlink:href="#p" />
<use x="108" y="312" xlink:href="#p" />
<use x="120" y="312" xlink:href="#p" />
<use x="132" y="312" xlink:href="#p" />
<use x="144" y="312" xlink:href="#p" />
<use x="168" y="312" xlink:href="#p" />
<use x="192" y="312" xlink:href="#p" />
<use x="240" y="312" xlink:href="#p" />
<use x="252" y="312" xlink:href="#p" />
<use x="264" y="312" xlink:href="#p" />
<use x="312" y="312" xlink:href="#p" />
<use x="324" y="312" xlink:href="#p" />
<use x="336" y="312" xlink:href="#p" />
<use x="348" y="312" xlink:href="#p" />
<use x="372" y="312" xlink:href="#p" />
<use x="396" y="312" xlink:href="#p" />
<use x="444" y="312" xlink:href="#p" />
<use x="24" y="324" xlink:href="#p" />
<use x="36" y="324" xlink:href="#p" />
<use x="48" y="324" xlink:href="#p" />
<use x="60" y="324" xlink:href="#p" />
<use x="84" y="324" xlink:href="#p" />
<use x="108" y="324" xlink:href="#p" />
<use x="156" y="324" xlink:href="#p" />
<use x="168" y="324" xlink:href="#p" />
<use x="180" y="324" xlink:href="#p" />
<use x="228" y="324" xlink:href="#p" />
<use x="252" y="324" xlink:href="#p" />
<use x="276" y="324" xlink:href="#p" />
<use x="288" y="324" xlink:href="#p" />
<use x="312" y="324" xlink:href="#p" />
<use x="360" y="324" xlink:href="#p" />
<use x="396" y="324" xlink:href="#p" />
<use x="420" y="324" xlink:href="#p" />
<use x="432" y="324" xlink:href="#p" />
<use x="444" y="324" xlink:href="#p" />
<use x="456" y="324" xlink:href="#p" />
<use x="468" y="324" xlink:href="#p" />
<use x="492" y="324" xlink:href="#p" />
<use x="36" y="336" xlink:href="#p" />
<use x="60" y="336" xlink:href="#p" />
<use x="84" y="336" xlink:href="#p" />
<use x="96" y="336" xlink:href="#p" />
<use x="108" y="336" xlink:href="#p" />
<use x="132" y="336" xlink:href="#p" />
<use x="144" y="336" xlink:href="#p" />
<use x="168" y="336" xlink:href="#p" />
<use x="216" y="336" xlink:href="#p" />
<use x="228" y="336" xlink:href="#p" />
<use x="288" y="336" xlink:href="#p" />
<use x="300" y="336" xlink:href="#p" />
<use x="312" y="336" xlink:href="#p" />
<use x="348" y="336" xlink:href="#p" />
<use x="360" y="336" xlink:href="#p" />
<use x="372" y="336" xlink:href="#p" />
<use x="408" y="336" xlink:href="#p" />
<use x="432" y="336" xlink:href="#p" />
<use x="444" y="336" xlink:href="#p" />
<use x="456" y="336" xlink:href="#p" />
<use x="24" y="348" xlink:href="#p" />
<use x="72" y="348" xlink:href="#p" />
<use x="84" y="348" xlink:href="#p" />
<use x="108" y="348" xlink:href="#p" />
<use x="132" y="348" xlink:href="#p" />
<use x="144" y="348" xlink:href="#p" />
<use x="156" y="348" xlink:href="#p" />
<use x="168" y="348" xlink:href="#p" />
<use x="192" y="348" xlink:href="#p" />
<use x="204" y="348" xlink:href="#p" />
<use x="240" y="348" xlink:href="#p" />
<use x="264" y="348" xlink:href="#p" />
<use x="276" y="348" xlink:href="#p" />
<use x="300" y="348" xlink:href="#p" />
<use x="324" y="348" xlink:href="#p" />
<use x="336" y="348" xlink:href="#p" />
<use x="348" y="348" xlink:href="#p" />
<use x="360" y="348" xlink:href="#p" />
<use x="372" y="348" xlink:href="#p" />
<use x="384" y="348" xlink:href="#p" />
<use x="396" y="348" xlink:href="#p" />
<use x="408" y="348" xlink:href="#p" />
<use x="420" y="348" xlink:href="#p" />
<use x="432" y="348" xlink:href="#p" />
<use x="444" y="348" xlink:href="#p" />
<use x="456" y="348" xlink:href="#p" />
<use x="468" y="348" xlink:href="#p" />
<use x="492" y="348" xlink:href="#p" />
<use x="24" y="360" xlink:href="#p" />
<use x="48" y="360" xlink:href="#p" />
<use x="96" y="360" xlink:href="#p" />
<use x="108" y="360" xlink:href="#p" />
<use x="120" y="360" xlink:href="#p" />
<use x="132" y="360" xlink:href="#p" />
<use x="156" y="360" xlink:href="#p" />
<use x="204" y="360" xlink:href="#p" />
<use x="228" y="360" xlink:href="#p" />
<use x="252" y="360" xlink:href="#p" />
<use x="276" y="360" xlink:href="#p" />
<use x="300" y="360" xlink:href="#p" />
<use x="348" y="360" xlink:href="#p" />
<use x="384" y="360" xlink:href="#p" />
<use x="396" y="360" xlink:href="#p" />
<use x="408" y="360" xlink:href="#p" />
<use x="432" y="360" xlink:href="#p" />
<use x="468" y="360" xlink:href="#p" />
<use x="480" y="360" xlink:href="#p" />
<use x="24" y="372" xlink:href="#p" />
<use x="48" y="372" xlink:href="#p" />
<use x="60" y="372" xlink:href="#p" />
<use x="144" y="372" xlink:href="#p" />
<use x="156" y="372" xlink:href="#p" />
<use x="180" y="372" xlink:href="#p" />
<use x="264" y="372" xlink:href="#p" />
<use x="336" y="372" xlink:href="#p" />
<use x="348" y="372" xlink:href="#p" />
<use x="360" y="372" xlink:href="#p" />
<use x="384" y="372" xlink:href="#p" />
<use x="420" y="372" xlink:href="#p" />
<use x="444" y="372" xlink:href="#p" />
<use x="456" y="372" xlink:href="#p" />
<use x="468" y="372" xlink:href="#p" />
<use x="480" y="372" xlink:href="#p" />
<use x="504" y="372" xlink:href="#p" />
<use x="24" y="384" xlink:href="#p" />
<use x="48" y="384" xlink:href="#p" />
<use x="72" y="384" xlink:href="#p" />
<use x="96" y="384" xlink:href="#p" />
<use x="108" y="384" xlink:href="#p" />
<use x="132" y="384" xlink:href="#p" />
<use x="144" y="384" xlink:href="#p" />
<use x="216" y="384" xlink:href="#p" />
<use x="228" y="384" xlink:href="#p" />
<use x="240" y="384" xlink:href="#p" />
<use x="252" y="384" xlink:href="#p" />
<use x="288" y="384" xlink:href="#p" />
<use x="300" y="384" xlink:href="#p" />
<use x="336" y="384" xlink:href="#p" />
<use x="372" y="384" xlink:href="#p" />
<use x="384" y="384" xlink:href="#p" />
<use x="408" y="384" xlink:href="#p" />
<use x="420" y="384" xlink:href="#p" />
<use x="432" y="384" xlink:href="#p" />
<use x="444" y="384" xlink:href="#p" />
<use x="480" y="384" xlink:href="#p" />
<use x="24" y="396" xlink:href="#p" />
<use x="60" y="396" xlink:href="#p" />
<use x="84" y="396" xlink:href="#p" />
<use x="120" y="396" xlink:href="#p" />
<use x="156" y="396" xlink:href="#p" />
<use x="168" y="396" xlink:href="#p" />
<use x="192" y="396" xlink:href="#p" />
<use x="216" y="396" xlink:href="#p" />
<use x="228" y="396" xlink:href="#p" />
<use x="240" y="396" xlink:href="#p" />
<use x="252" y="396" xlink:href="#p" />
<use x="264" y="396" xlink:href="#p" />
<use x="276" y="396" xlink:href="#p" />
<use x="300" y="396" xlink:href="#p" />
<use x="324" y="396" xlink:href="#p" />
<use x="360" y="396" xlink:href="#p" />
<use x="384" y="396" xlink:href="#p" />
<use x="420" y="396" xlink:href="#p" />
<use x="432" y="396" xlink:href="#p" />
<use x="456" y="396" xlink:href="#p" />
<use x="468" y="396" xlink:href="#p" />
<use x="24" y="408" xlink:href="#p" />
<use x="48" y="408" xlink:href="#p" />
<use x="72" y="408" xlink:href="#p" />
<use x="84" y="408" xlink:href="#p" />
<use x="96" y="408" xlink:href="#p" />
<use x="144" y="408" xlink:href="#p" />
<use x="204" y="408" xlink:href="#p" />
<use x="216" y="408" xlink:href="#p" />
<use x="228" y="408" xlink:href="#p" />
<use x="252" y="408" xlink:href="#p" />
<use x="276" y="408" xlink:href="#p" />
<use x="300" y="408" xlink:href="#p" />
<use x="372" y="408" xlink:href="#p" />
<use x="408" y="408" xlink:href="#p" />
<use x="420" y="408" xlink:href="#p" />
<use x="432" y="408" xlink:href="#p" />
<use x="444" y="408" xlink:href="#p" />
<use x="456" y="408" xlink:href="#p" />
<use x="480" y="408" xlink:href="#p" />
<use x="120" y="420" xlink:href="#p" />
<use x="132" y="420" xlink:href="#p" />
<use x="168" y="420" xlink:href="#p" />
<use x="180" y="420" xlink:href="#p" />
<use x="204" y="420" xlink:href="#p" />
<use x="228" y="420" xlink:href="#p" />
<use x="240" y="420" xlink:href="#p" />
<use x="276" y="420" xlink:href="#p" />
<use x="300" y="420" xlink:href="#p" />
<use x="348" y="420" xlink:href="#p" />
<use x="360" y="420" xlink:href="#p" />
<use x="408" y="420" xlink:href="#p" />
<use x="456" y="420" xlink:href="#p" />
<use x="468" y="420" xlink:href="#p" />
<use x="492" y="420" xlink:href="#p" />
<use x="504" y="420" xlink:href="#p" />
<use x="24" y="432" xlink:href="#p" />
<use x="36" y="432" xlink:href="#p" />
<use x="48" y="432" xlink:href="#p" />
<use x="60" y="432" xlink:href="#p" />
<use x="72" y="432" xlink:href="#p" />
<use x="84" y="432" xlink:href="#p" />
<use x="96" y="432" xlink:href="#p" />
<use x="132" y="432" xlink:href="#p" />
<use x="144" y="432" xlink:href="#p" />
<use x="168" y="432" xlink:href="#p" />
<use x="204" y="432" xlink:href="#p" />
<use x="252" y="432" xlink:href="#p" />
<use x="264" y="432" xlink:href="#p" />
<use x="312" y="432" xlink:href="#p" />
<use x="324" y="432" xlink:href="#p" />
<use x="336" y="432" xlink:href="#p" />
<use x="348" y="432" xlink:href="#p" />
<use x="384" y="432" xlink:href="#p" />
<use x="408" y="432" xlink:href="#p" />
<use x="432" y="432" xlink:href="#p" />
<use x="456" y="432" xlink:href="#p" />
<use x="24" y="444" xlink:href="#p" />
<use x="96" y="444" xlink:href="#p" />
<use x="132" y="444" xlink:href="#p" />
<use x="156" y="444" xlink:href="#p" />
<use x="168" y="444" xlink:href="#p" />
<use x="192" y="444" xlink:href="#p" />
<use x="204" y="444" xlink:href="#p" />
<use x="216" y="444" xlink:href="#p" />
<use x="228" y="444" xlink:href="#p" />
<use x="252" y="444" xlink:href="#p" />
<use x="264" y="444" xlink:href="#p" />
<use x="276" y="444" xlink:href="#p" />
<use x="324" y="444" xlink:href="#p" />
<use x="336" y="444" xlink:href="#p" />
<use x="396" y="444" xlink:href="#p" />
<use x="408" y="444" xlink:href="#p" />
<use x="456" y="444" xlink:href="#p" />
<use x="492" y="444" xlink:href="#p" />
<use x="24" y="456" xlink:href="#p" />
<use x="48" y="456" xlink:href="#p" />
<use x="60" y="456" xlink:href="#p" />
<use x="72" y="456" xlink:href="#p" />
<use x="96" y="456" xlink:href="#p" />
<use x="120" y="456" xlink:href="#p" />
<use x="156" y="456" xlink:href="#p" />
<use x="180" y="456" xlink:href="#p" />
<use x="192" y="456" xlink:href="#p" />
<use x="204" y="456" xlink:href="#p" />
<use x="240" y="456" xlink:href="#p" />
<use x="252" y="456" xlink:href="#p" />
<use x="336" y="456" xlink:href="#p" />
<use x="348" y="456" xlink:href="#p" />
<use x="360" y="456" xlink:href="#p" />
<use x="384" y="456" xlink:href="#p" />
<use x="408" y="456" xlink:href="#p" />
<use x="420" y="456" xlink:href="#p" />
<use x="432" y="456" xlink:href="#p" />
<use x="444" y="456" xlink:href="#p" />
<use x="456" y="456" xlink:href="#p" />
<use x="468" y="456" xlink:href="#p" />
<use x="480" y="456" xlink:href="#p" />
<use x="492" y="456" xlink:href="#p" />
<use x="504" y="456" xlink:href="#p" />
<use x="24" y="468" xlink:href="#p" />
<use x="48" y="468" xlink:href="#p" />
<use x="60" y="468" xlink:href="#p" />
<use x="72" y="468" xlink:href="#p" />
<use x="96" y="468" xlink:href="#p" />
<use x="120" y="468" xlink:href="#p" />
<use x="144" y="468" xlink:href="#p" />
<use x="156" y="468" xlink:href="#p" />
<use x="180" y="468" xlink:href="#p" />
<use x="192" y="468" xlink:href="#p" />
<use x="228" y="468" xlink:href="#p" />
<use x="240" y="468" xlink:href="#p" />
<use x="264" y="468" xlink:href="#p" />
<use x="288" y="468" xlink:href="#p" />
<use x="312" y="468" xlink:href="#p" />
<use x="324" y="468" xlink:href="#p" />
<use x="336" y="468" xlink:href="#p" />
<use x="348" y="468" xlink:href="#p" />
<use x="360" y="468" xlink:href="#p" />
<use x="396" y="468" xlink:href="#p" />
<use x="420" y="468" xlink:href="#p" />
<use x="444" y="468" xlink:href="#p" />
<use x="24" y="480" xlink:href="#p" />
<use x="48" y="480" xlink:href="#p" />
<use x="60" y="480" xlink:href="#p" />
<use x="72" y="480" xlink:href="#p" />
<use x="96" y="480" xlink:href="#p" />
<use x="120" y="480" xlink:href="#p" />
<use x="132" y="480" xlink:href="#p" />
<use x="180" y="480" xlink:href="#p" />
<use x="192" y="480" xlink:href="#p" />
<use x="228" y="480" xlink:href="#p" />
<use x="240" y="480" xlink:href="#p" />
<use x="252" y="480" xlink:href="#p" />
<use x="264" y="480" xlink:href="#p" />
<use x="324" y="480" xlink:href="#p" />
<use x="372" y="480" xlink:href="#p" />
<use x="420" y="480" xlink:href="#p" />
<use x="432" y="480" xlink:href="#p" />
<use x="444" y="480" xlink:href="#p" />
<use x="456" y="480" xlink:href="#p" />
<use x="468" y="480" xlink:href="#p" />
<use x="492" y="480" xlink:href="#p" />
<use x="24" y="492" xlink:href="#p" />
<use x="96" y="492" xlink:href="#p" />
<use x="144" y="492" xlink:href="#p" />
<use x="156" y="492" xlink:href="#p" />
<use x="192" y="492" xlink:href="#p" />
<use x="216" y="492" xlink:href="#p" />
<use x="228" y="492" xlink:href="#p" />
<use x="240" y="492" xlink:href="#p" />
<use x="264" y="492" xlink:href="#p" />
<use x="276" y="492" xlink:href="#p" />
<use x="288" y="492" xlink:href="#p" />
<use x="312" y="492" xlink:href="#p" />
<use x="348" y="492" xlink:href="#p" />
<use x="396" y="492" xlink:href="#p" />
<use x="408" y="492" xlink:href="#p" />
<use x="420" y="492" xlink:href="#p" />
<use x="456" y="492" xlink:href="#p" />
<use x="492" y="492" xlink:href="#p" />
<use x="24" y="504" xlink:href="#p" />
<use x="36" y="504" xlink:href="#p" />
<use x="48" y="504" xlink:href="#p" />
<use x="60" y="504" xlink:href="#p" />
<use x="72" y="504" xlink:href="#p" />
<use x="84" y="504" xlink:href="#p" />
<use x="96" y="504" xlink:href="#p" />
<use x="132" y="504" xlink:href="#p" />
<use x="144" y="504" xlink:href="#p" />
<use x="204" y="504" xlink:href="#p" />
<use x="240" y="504" xlink:href="#p" />
<use x="264" y="504" xlink:href="#p" />
<use x="288" y="504" xlink:href="#p" />
<use x="300" y="504" xlink:href="#p" />
<use x="348" y="504" xlink:href="#p" />
<use x="372" y="504" xlink:href="#p" />
<use x="420" y="504" xlink:href="#p" />
<use x="444" y="504" xlink:href="#p" />
<use x="456" y="504" xlink:href="#p" />
<use x="468" y="504" xlink:href="#p" />
</g>
</svg>